PathFileType	4	(X/Y/Z)	C249e_D251_DD_1_S001_6.trc
DataRate	CameraRate	NumFrames	NumMarkers	Units	OrigDataRate	OrigDataStartFrame	OrigNumFrames
50.0	50.0	4	54	mm	50.0	240	274
Frame#	Time		Q_WaistRFront		Q_WaistLFront		Q_WaistL		Q_WaistR		Q_WaistBack		Q_LThighFrontLow		Q_RThighFrontLow		Q_RKneeIn		Q_RKneeOut		Q_RShinFrontHigh		Q_LKneeIn		Q_LKneeOut		Q_LShinFrontHigh		Q_RForefoot5		Q_RForefoot2		Q_RHeelBack		Q_RAnkleOut		Q_LForefoot5		Q_LForefoot2		Q_LHeelBack		Q_LAnkleOut		Q_SpineThoracic2		Q_Chest		Q_SpineThoracic12		Q_HeadL		Q_HeadR		Q_HeadFront		Q_LShoulderTop		Q_LArm		Q_LElbowOut		Q_LElbowIn		Q_LWristOut		Q_LWristIn		Q_LHand2		Q_RShoulderTop		Q_RArm		Q_RElbowOut		Q_RElbowIn		Q_RWristOut		Q_RWristIn		Q_RHand2		RHipAngles		LHipAngles		RKneeAngles		LKneeAngles		RAnkleAngles		LAnkleAngles		RShoulderAngles		LShoulderAngles		RElbowAngles		LElbowAngles		RWristAngles		LWristAngles		Neck
			X1	Y1	Z1	X2	Y2	Z2	X3	Y3	Z3	X4	Y4	Z4	X5	Y5	Z5	X6	Y6	Z6	X7	Y7	Z7	X8	Y8	Z8	X9	Y9	Z9	X10	Y10	Z10	X11	Y11	Z11	X12	Y12	Z12	X13	Y13	Z13	X14	Y14	Z14	X15	Y15	Z15	X16	Y16	Z16	X17	Y17	Z17	X18	Y18	Z18	X19	Y19	Z19	X20	Y20	Z20	X21	Y21	Z21	X22	Y22	Z22	X23	Y23	Z23	X24	Y24	Z24	X25	Y25	Z25	X26	Y26	Z26	X27	Y27	Z27	X28	Y28	Z28	X29	Y29	Z29	X30	Y30	Z30	X31	Y31	Z31	X32	Y32	Z32	X33	Y33	Z33	X34	Y34	Z34	X35	Y35	Z35	X36	Y36	Z36	X37	Y37	Z37	X38	Y38	Z38	X39	Y39	Z39	X40	Y40	Z40	X41	Y41	Z41	X42	Y42	Z42	X43	Y43	Z43	X44	Y44	Z44	X45	Y45	Z45	X46	Y46	Z46	X47	Y47	Z47	X48	Y48	Z48	X49	Y49	Z49	X50	Y50	Z50	X51	Y51	Z51	X52	Y52	Z52	X53	Y53	Z53	X54	Y54	Z54

240	4.78000	149.50377	823.44006	158.44841	-106.97362	824.66132	156.20598	-107.43501	844.45374	219.75684	149.04237	843.23248	221.99927	20.80367	843.84308	220.87805	-110.61818	467.88739	207.95909	150.50291	468.21124	194.31230	106.00985	405.63525	206.34418	243.56859	431.65900	206.94189	212.15266	221.35078	197.80481	-66.67945	403.46158	222.63089	-203.15419	434.67441	223.26817	-179.61211	224.03154	203.89415	320.51263	42.38914	137.12430	270.74799	43.81157	132.49200	257.22699	34.47475	274.88058	310.08621	70.68738	262.14185	-293.61786	41.85487	135.51961	-243.88783	44.17954	130.88075	-230.24077	36.55066	273.35907	-283.77689	71.61657	260.24445	23.27906	1305.29895	323.17920	21.21729	748.50842	18.79996	23.27906	1305.29895	323.17920	-45.89466	1479.05530	210.88307	94.08569	1481.23938	210.02592	23.86317	1467.98438	141.51970	-106.14194	1350.01843	241.53348	-228.33345	1395.01233	179.12279	-262.61978	1495.35107	177.23715	-245.18156	1460.94067	84.97757	-230.69751	1686.98926	40.78611	-183.27512	1677.33313	53.35101	-128.62216	1745.06580	46.94640	155.71825	1348.53198	235.27487	263.10913	1399.60242	159.21664	291.90286	1501.57336	154.76494	263.30930	1467.71692	65.12038	255.40811	1694.03418	20.63787	209.13168	1686.79407	38.13285	161.36340	1760.45532	61.04639	-19.85608	7.48292	-0.39749	-16.96506	7.09666	0.88057	-5.70025	3.49271	0.04940	0.14429	5.50779	-0.15480	-5.86743	5.97954	-12.04017	-2.03619	5.95572	-15.32058	-34.93899	88.29313	-60.45810	31.41813	-78.05231	-52.94383	-39.96796	-78.05231	-13.77472	-43.98212	-0.00000	-13.77472	11.13062	28.65414	-13.77472	14.74756	23.62531	-0.00000	-27.78126	-1.16573	4.19766
241	4.80000	149.51601	823.24878	158.52232	-106.96201	824.28748	156.26540	-107.44119	844.06293	219.82140	149.03682	843.02417	222.07832	20.79782	843.54358	220.94986	-110.40282	467.49857	208.01094	150.65704	467.99298	194.33212	106.22170	405.40198	206.49323	243.76991	431.48676	206.74960	212.42468	221.16548	197.67218	-66.46400	403.09534	222.77284	-202.95302	434.24957	223.16324	-179.28627	223.61343	203.86902	320.79199	42.52757	136.67880	271.01062	43.77316	132.17761	257.89603	34.28320	274.59409	310.59030	70.69632	261.74411	-293.20398	41.95098	135.22885	-243.45448	44.06727	130.70033	-230.14378	36.06499	273.18997	-283.49744	71.39462	260.03967	23.03657	1304.99622	323.25769	21.24845	748.19299	18.89993	23.03657	1304.99622	323.25769	-46.15528	1478.69861	211.14841	93.82384	1481.02991	210.50967	23.72132	1467.75745	141.88406	-106.32950	1349.55042	241.81306	-228.76521	1394.10120	179.30783	-263.48892	1494.28992	177.44585	-245.71404	1460.04260	85.18983	-230.89503	1686.16431	41.48658	-183.52917	1676.45007	54.21868	-128.37048	1743.84924	49.06511	155.31892	1348.54224	235.60979	263.16028	1399.48474	159.76854	291.96457	1501.44641	155.17596	263.72421	1467.36511	65.50469	255.44917	1693.58398	20.59171	209.13547	1686.27051	37.95702	161.85027	1759.91577	61.58678	-19.83330	7.46976	-0.50046	-16.93532	7.11268	0.78578	-5.68413	3.48697	0.02026	0.14817	5.50838	-0.14612	-5.92404	5.97096	-11.85757	-2.20275	5.95764	-15.04319	-34.96262	88.00127	-60.31774	31.38250	-78.10744	-52.72157	-40.00415	-78.10744	-12.56061	-44.35386	-0.00000	-12.56061	12.37583	28.66018	-12.56061	14.52754	24.10568	-0.00000	-27.72497	-1.21480	4.23044
242	4.82000	149.72859	823.13617	158.64163	-106.74680	824.21777	156.11729	-107.28925	843.95105	219.68591	149.18614	842.86945	222.21024	20.94844	843.41022	220.94807	-110.37335	467.39023	207.85948	150.59087	467.82413	194.29440	106.08994	405.26999	206.33049	243.66069	431.23166	206.85335	212.14401	220.94707	197.52242	-66.46882	402.97055	222.60408	-202.94551	434.17874	223.00647	-179.36494	223.52713	203.77522	320.67975	42.69852	136.55856	270.90234	43.69667	131.95279	257.53293	33.92779	274.32666	310.06781	70.62855	261.64328	-293.65067	42.37987	135.22510	-243.88719	44.07783	130.67372	-230.57971	35.99457	273.15909	-283.64111	71.76768	260.02515	23.23710	1304.80383	323.45447	21.54986	748.11548	18.88577	23.23710	1304.80383	323.45447	-45.39902	1478.80090	211.93826	94.58759	1480.59106	211.20468	24.38756	1467.60803	142.62341	-105.52266	1349.98242	242.38065	-228.54625	1394.43384	180.28137	-263.39145	1494.58044	178.42546	-245.81134	1460.27795	86.15266	-231.41696	1686.38184	42.21624	-184.00462	1676.74341	54.83251	-128.23505	1743.55542	51.78662	155.41838	1348.67297	236.09351	263.38535	1399.69556	160.32202	291.97137	1501.71033	155.54785	264.02802	1467.34412	65.89222	254.66225	1693.44678	20.60988	208.36264	1685.92468	37.92360	161.23444	1759.34692	62.02401	-19.81936	7.43374	-0.49128	-16.89272	7.12495	0.80732	-5.65856	3.47956	0.05569	0.12887	5.50885	-0.10337	-5.98627	5.98136	-11.51128	-2.25218	5.95956	-14.58255	-35.06947	87.86993	-60.40678	31.30545	-77.83096	-52.52655	-40.08355	-77.83096	-11.33819	-44.40840	-0.00000	-11.33819	13.52594	28.61699	-11.33819	15.06819	24.89656	-0.00000	-27.73388	-0.96891	4.27314
243	4.84000	149.84348	823.11346	158.54150	-106.63022	824.17084	155.83617	-107.21952	843.88757	219.40947	149.25417	842.83020	222.11482	21.01731	843.35889	220.76215	-110.13424	467.30643	207.59854	150.53490	467.76004	194.18585	106.01371	405.23444	206.28998	243.59837	431.12476	206.67154	211.96294	220.85760	197.34818	-66.20363	402.91147	222.33482	-202.69679	434.04770	222.73843	-179.00606	223.40442	203.55080	320.44174	42.89381	136.21921	270.65405	43.67475	131.68343	257.52707	33.78923	274.07184	309.88211	70.72600	261.33017	-293.57651	42.87348	135.05771	-243.80042	44.06700	130.48405	-230.51129	35.82360	272.96198	-283.21274	72.13586	259.85834	23.27704	1304.70923	323.30878	21.72244	748.03656	18.71078	23.27704	1304.70923	323.30878	-45.44744	1478.56592	212.54895	94.53419	1480.47046	211.31912	24.10382	1467.31738	143.00693	-105.17423	1350.20654	242.23070	-228.32533	1394.53345	179.85094	-263.35376	1494.61499	177.92494	-245.33864	1460.41064	85.69953	-231.07838	1686.56970	42.00297	-183.70586	1676.98779	54.81035	-127.64688	1743.61890	53.65895	155.41870	1348.74072	236.13745	263.43231	1399.70947	160.23520	291.94708	1501.73450	155.25522	264.03937	1467.16467	65.66682	254.18611	1693.17346	20.02087	207.90913	1685.58350	37.36543	161.02275	1758.91333	62.00735	-19.79464	7.40369	-0.54927	-16.87171	7.10009	0.81638	-5.63782	3.47328	0.02332	0.11839	5.50864	-0.07102	-6.03539	5.94943	-11.22929	-2.33240	5.96535	-13.96703	-35.18152	87.85881	-60.44321	31.34996	-77.99550	-52.45350	-40.07399	-77.99550	-10.16847	-44.50061	-0.00000	-10.16847	14.42058	28.58447	-10.16847	15.06069	25.45181	-0.00000	-27.82701	-0.91141	4.27422
